<?xml version="1.0" encoding="UTF-8"?>
<svg width="16px" height="16px" viewBox="0 0 16 16" version="1.1" xmlns="http://www.w3.org/2000/svg" xmlns:xlink="http://www.w3.org/1999/xlink">
    <!-- Generator: Sketch 51.3 (57544) - http://www.bohemiancoding.com/sketch -->
    <title>Notification</title>
    <desc>Created with Sketch.</desc>
    <defs></defs>
    <g id="Webapp-Tunnel" stroke="none" stroke-width="1" fill="none" fill-rule="evenodd">
        <g id="Yandex-History" transform="translate(-1302.000000, -16.000000)" fill="#0EBAC5" fill-rule="nonzero">
            <g id="Bellss" transform="translate(1302.000000, 16.000000)">
                <g id="Layer_2" transform="translate(0.144886, 0.144886)">
                    <path d="M13.6048295,10.5911932 L13.6048295,5.80994318 C13.6048295,2.60795455 10.996875,0 7.79488636,0 C4.59289773,0 1.98494318,2.60795455 1.98494318,5.80994318 L1.98494318,10.5911932 L0,10.5911932 L0,11.6198864 L15.5897727,11.6198864 L15.5897727,10.5911932 L13.6048295,10.5911932 Z M12.5761364,10.5911932 L3.01363636,10.5911932 L3.01363636,8.31647727 L12.5616477,8.31647727 L12.5616477,10.5911932 L12.5761364,10.5911932 Z M12.5761364,7.27329545 L3.01363636,7.27329545 L3.01363636,5.80994318 C3.01363636,3.17301136 5.15795455,1.02869318 7.79488636,1.02869318 C10.4318182,1.02869318 12.5761364,3.17301136 12.5761364,5.80994318 L12.5761364,7.27329545 Z" id="Shape"></path>
                    <path d="M5.30284091,13.0977273 L10.3014205,13.0977273 C10.2289773,14.4161932 9.14232955,15.459375 7.809375,15.459375 C6.47642045,15.459375 5.37528409,14.4017045 5.30284091,13.0977273 Z" id="Shape"></path>
                </g>
            </g>
        </g>
    </g>
</svg>