<svg xmlns="http://www.w3.org/2000/svg" width="14" height="14" viewBox="0 0 11 11">
    <path fill="#FFF" fill-rule="evenodd" d="M5.89 2.911a.538.538 0 0 0-.387-.16H5.5c-.02 0-.037.008-.056.01a.552.552 0 0 0-.15.03c-.037.016-.068.042-.102.065-.023.016-.05.026-.072.046L3.47 4.476a.55.55 0 0 0 .76.796l.72-.687V7.7a.55.55 0 0 0 1.1 0V4.628l.71.711a.55.55 0 0 0 .78-.778l-1.65-1.65zM5.5 9.9a4.405 4.405 0 0 1-4.4-4.4c0-2.426 1.974-4.4 4.4-4.4s4.4 1.974 4.4 4.4-1.974 4.4-4.4 4.4m0-9.9A5.506 5.506 0 0 0 0 5.5C0 8.533 2.467 11 5.5 11S11 8.533 11 5.5 8.533 0 5.5 0"/>
</svg>
