<svg xmlns="http://www.w3.org/2000/svg" width="24" height="24" viewBox="0 0 25 25">
    <path fill="#0EBAC5" fill-rule="nonzero" d="M12.47 24.941C5.596 24.941 0 19.347 0 12.471 0 5.594 5.594 0 12.47 0c6.877 0 12.471 5.594 12.471 12.47 0 6.877-5.594 12.471-12.47 12.471zm0-23.576c-6.123 0-11.105 4.982-11.105 11.106 0 6.123 4.982 11.106 11.106 11.106 6.123 0 11.105-4.983 11.105-11.106 0-6.124-4.982-11.106-11.105-11.106zm0 14.794a4.198 4.198 0 0 1-4.192-4.193 4.197 4.197 0 0 1 4.193-4.192 4.198 4.198 0 0 1 4.193 4.193 4.198 4.198 0 0 1-4.193 4.192zm0-7.02a2.831 2.831 0 0 0-2.827 2.827 2.831 2.831 0 0 0 2.828 2.828 2.832 2.832 0 0 0 2.828-2.828 2.832 2.832 0 0 0-2.828-2.828zm0 15.802c-2.59 0-5.076-.79-7.189-2.284l-.322-.228.037-.392a7.47 7.47 0 0 1 7.475-6.809 7.47 7.47 0 0 1 7.475 6.808l.036.393-.322.227a12.385 12.385 0 0 1-7.19 2.285zm-6.067-3.17a11.024 11.024 0 0 0 6.068 1.806c2.171 0 4.26-.624 6.067-1.807a6.11 6.11 0 0 0-6.067-5.177 6.11 6.11 0 0 0-6.068 5.177z"/>
</svg>
