<?xml version="1.0" encoding="UTF-8"?>
<svg width="29px" height="29px" viewBox="0 0 29 29" version="1.1" xmlns="http://www.w3.org/2000/svg" xmlns:xlink="http://www.w3.org/1999/xlink">
    <!-- Generator: Sketch 51.3 (57544) - http://www.bohemiancoding.com/sketch -->
    <title>Startup</title>
    <desc>Created with Sketch.</desc>
    <defs></defs>
    <g id="Page-1" stroke="none" stroke-width="1" fill="none" fill-rule="evenodd">
        <g id="Realtime-Browser-Testing---REACT-Drive" transform="translate(-850.000000, -78.000000)" fill-rule="nonzero" stroke="#0EBAC5">
            <g id="Group-3" transform="translate(685.000000, 41.000000)">
                <g id="Startup" transform="translate(166.000000, 37.116142)">
                    <path d="M7.39285714,28.043956 L18.9642857,28.043956 M7.39285714,28.043956 L18.9642857,28.043956" id="Line" stroke-width="1.25" stroke-linecap="round"></path>
                    <path d="M13.1785714,28.043956 L13.1785714,25.4945055" id="Line-2" stroke-width="1.25" stroke-linecap="round"></path>
                    <path d="M0.861702128,23.2824478 C0.40212766,23.2824478 0,22.889505 0,22.4404275 L0,18.9600766 C0,18.9600766 0.0478723404,18.9694324 0.143617021,18.988144 L0.315957447,18.988144 L24.2138298,18.9600766 C24.2425532,19.0162113 24.2425532,19.0162113 24.2138298,19.0162113 L0.0287234043,19.0162113 L0.0287234043,22.4123601 C0.0287234043,22.8614376 0.40212766,23.2263131 0.861702128,23.2263131 L25.8797872,23.2263131 C26.3393617,23.2263131 26.712766,22.8614376 26.712766,22.4123601 L26.712766,5.45968344 C26.712766,5.01060591 26.3393617,4.64573042 25.8797872,4.64573042 L18.8712766,4.64573042 C18.8425532,4.58959573 18.8425532,4.58959573 18.8712766,4.58959573 L25.8797872,4.58959573 C26.3393617,4.58959573 26.7414894,4.98253856 26.7414894,5.43161609 L26.7414894,22.3842928 C26.7414894,22.8614376 26.3680851,23.2263131 25.8797872,23.2263131 L0.861702128,23.2263131 L0.861702128,23.2824478 Z" id="Shape" stroke-width="1.25"></path>
                    <path d="M20.1071429,8.63839365 L19.2857143,8.63839365 L19.2857143,8.84161073 C18.5258929,6.48429268 16.3080357,4.87887781 13.8026786,4.87887781 L13.3919643,4.87887781 L13.3919643,3.21249781 C14.275,3.00928074 14.8294643,2.13544732 14.6241071,1.26161391 C14.41875,0.387780498 13.5357143,-0.160905599 12.6526786,0.0423114739 C11.7696429,0.245528547 11.2151786,1.11936196 11.4205357,1.99319537 C11.5642857,2.56220318 11.9955357,3.02960244 12.5705357,3.1921761 L12.5705357,4.87887781 L12.1598214,4.87887781 C9.73660714,4.87887781 7.58035714,6.38268414 6.75892857,8.63839365 L5.9375,8.63839365 C5.13660714,8.63839365 4.5,9.26836658 4.5,10.0609132 L4.5,11.8898668 C4.5,12.6824134 5.13660714,13.3123863 5.9375,13.3123863 L6.40982143,13.3123863 L6.40982143,14.6332973 C6.40982143,15.97453 7.51875,17.0719022 8.87410714,17.0719022 L17.0883929,17.0719022 C18.44375,17.0719022 19.5526786,15.97453 19.5526786,14.6332973 L19.5526786,13.3123863 L20.1071429,13.3123863 C20.9080357,13.3123863 21.5446429,12.6824134 21.5446429,11.8898668 L21.5446429,10.0609132 C21.5446429,9.26836658 20.9080357,8.63839365 20.1071429,8.63839365 Z M12.2008929,1.62740464 C12.2008929,1.18032708 12.5705357,0.81453635 13.0223214,0.81453635 C13.4741071,0.81453635 13.84375,1.18032708 13.84375,1.62740464 C13.84375,2.0744822 13.4741071,2.44027293 13.0223214,2.44027293 C12.5705357,2.44027293 12.2008929,2.0744822 12.2008929,1.62740464 Z M5.9375,12.499518 C5.58839286,12.499518 5.32142857,12.2353358 5.32142857,11.8898668 L5.32142857,10.0609132 C5.32142857,9.71544414 5.58839286,9.45126194 5.9375,9.45126194 L6.53303571,9.45126194 C6.45089286,9.81705267 6.43035714,10.2031651 6.43035714,10.5689558 L6.43035714,12.499518 L5.9375,12.499518 Z M15.6508929,16.2590339 L13.3919643,16.2590339 L13.3919643,13.6172119 L14.8294643,13.6172119 C15.28125,13.6172119 15.6508929,13.9830027 15.6508929,14.4300802 L15.6508929,16.2590339 Z M12.5705357,16.2590339 L10.3116071,16.2590339 L10.3116071,14.4300802 C10.3116071,13.9830027 10.68125,13.6172119 11.1330357,13.6172119 L12.5705357,13.6172119 L12.5705357,16.2590339 Z M18.73125,14.6332973 C18.73125,15.5274524 17.9919643,16.2590339 17.0883929,16.2590339 L16.4723214,16.2590339 L16.4723214,14.4300802 C16.4723214,13.5359251 15.7330357,12.8043436 14.8294643,12.8043436 L11.1330357,12.8043436 C10.2294643,12.8043436 9.49017857,13.5359251 9.49017857,14.4300802 L9.49017857,16.2590339 L8.87410714,16.2590339 C7.97053571,16.2590339 7.23125,15.5274524 7.23125,14.6332973 L7.23125,10.5689558 C7.23125,7.86616878 9.42857143,5.6917461 12.1598214,5.6917461 L13.8026786,5.6917461 C16.5339286,5.6917461 18.73125,7.86616878 18.73125,10.5689558 L18.73125,14.6332973 Z M20.7232143,11.8898668 C20.7232143,12.2353358 20.45625,12.499518 20.1071429,12.499518 L19.5526786,12.499518 L19.5526786,10.5689558 C19.5526786,10.2031651 19.5116071,9.81705267 19.4294643,9.45126194 L20.0866071,9.45126194 C20.4357143,9.45126194 20.7026786,9.71544414 20.7026786,10.0609132 L20.7026786,11.8898668 L20.7232143,11.8898668 Z M10.7633929,7.9271339 C9.85982143,7.9271339 9.12053571,8.65871536 9.12053571,9.55287048 C9.12053571,10.4470256 9.85982143,11.1786071 10.7633929,11.1786071 C11.6669643,11.1786071 12.40625,10.4470256 12.40625,9.55287048 C12.40625,8.65871536 11.6669643,7.9271339 10.7633929,7.9271339 Z M10.7633929,10.3657388 C10.3116071,10.3657388 9.94196429,9.99994804 9.94196429,9.55287048 C9.94196429,9.10579292 10.3116071,8.74000219 10.7633929,8.74000219 C11.2151786,8.74000219 11.5848214,9.10579292 11.5848214,9.55287048 C11.5848214,9.99994804 11.2151786,10.3657388 10.7633929,10.3657388 Z M15.28125,7.9271339 C14.3776786,7.9271339 13.6383929,8.65871536 13.6383929,9.55287048 C13.6383929,10.4470256 14.3776786,11.1786071 15.28125,11.1786071 C16.1848214,11.1786071 16.9241071,10.4470256 16.9241071,9.55287048 C16.9241071,8.65871536 16.1848214,7.9271339 15.28125,7.9271339 Z M15.28125,10.3657388 C14.8294643,10.3657388 14.4598214,9.99994804 14.4598214,9.55287048 C14.4598214,9.10579292 14.8294643,8.74000219 15.28125,8.74000219 C15.7330357,8.74000219 16.1026786,9.10579292 16.1026786,9.55287048 C16.1026786,9.99994804 15.7330357,10.3657388 15.28125,10.3657388 Z" id="Shape" stroke-width="0.25" fill="#0EBAC5"></path>
                    <path d="M0.0287234043,16.6024196 C0,16.6024196 0,16.5743523 0,16.5743523 L0,5.45968344 C0,4.98253856 0.373404255,4.61766307 0.861702128,4.61766307 L7.89893617,4.61766307 C7.89893617,4.61766307 7.92765957,4.61766307 7.92765957,4.64573042 C7.92765957,4.67379776 7.92765957,4.67379776 7.89893617,4.67379776 L0.861702128,4.67379776 C0.40212766,4.67379776 0.0287234043,5.03867325 0.0287234043,5.48775078 L0.0287234043,16.6024196 C0.0287234043,16.6024196 0.0287234043,16.6024196 0.0287234043,16.6024196 Z" id="Shape" stroke-width="1.25"></path>
                </g>
            </g>
        </g>
    </g>
</svg>