<?xml version="1.0" encoding="UTF-8"?>
<svg width="29px" height="24px" viewBox="0 0 29 24" version="1.1" xmlns="http://www.w3.org/2000/svg" xmlns:xlink="http://www.w3.org/1999/xlink">
    <!-- Generator: Sketch 51.3 (57544) - http://www.bohemiancoding.com/sketch -->
    <title>LT Browser</title>
    <desc>Created with Sketch.</desc>
    <defs></defs>
    <g id="Page-1" stroke="none" stroke-width="1" fill="none" fill-rule="evenodd">
        <g id="Realtime-Browser-Testing---REACT-Drive" transform="translate(-850.000000, -150.000000)" stroke="#0EBAC5" stroke-width="1.25">
            <g id="Group-3" transform="translate(685.000000, 41.000000)">
                <g id="LT-Browser" transform="translate(166.000000, 110.116142)">
                    <path d="M0.472199307,-1.0658141e-14 L26.3719565,-1.06026299e-14 C26.632745,-1.0650536e-14 26.8441558,0.211410831 26.8441558,0.472199307 L26.8441558,21.0583095 C26.8441558,21.319098 26.632745,21.5305088 26.3719565,21.5305088 L0.472199307,21.5305088 C0.211410831,21.5305088 -4.12151833e-16,21.319098 -4.4408921e-16,21.0583095 L5.55111512e-17,0.472199307 C2.3573774e-17,0.211410831 0.211410831,-1.10543242e-14 0.472199307,-1.11022302e-14 Z" id="Rectangle-path"></path>
                    <g id="Power" transform="translate(13.557856, 11.990852) rotate(90.000000) translate(-13.557856, -11.990852) translate(6.557856, 5.490852)" stroke-linecap="round" stroke-linejoin="round">
                        <ellipse id="Oval" cx="7.26363636" cy="6.38614744" rx="6.26363636" ry="6.38614744"></ellipse>
                        <path d="M7.80184379,5.15277778 L12.2552491,5.15277778 L4.18709226,15.8356151 L6.19815621,7.84722222 L1.74475085,7.84722222 L9.81290774,-2.83561514 L7.80184379,5.15277778 Z" id="Shape" transform="translate(7.000000, 6.500000) rotate(90.000000) translate(-7.000000, -6.500000) "></path>
                    </g>
                    <path d="M0,3.71324864 L26.8441558,3.71324864" id="Shape"></path>
                    <path d="M7.75,0 L7.75,3.53151011" id="Shape"></path>
                </g>
            </g>
        </g>
    </g>
</svg>