<?xml version="1.0" encoding="UTF-8"?>
<svg width="29px" height="33px" viewBox="0 0 29 33" version="1.1" xmlns="http://www.w3.org/2000/svg" xmlns:xlink="http://www.w3.org/1999/xlink">
    <!-- Generator: Sketch 51.3 (57544) - http://www.bohemiancoding.com/sketch -->
    <title>Startup</title>
    <desc>Created with Sketch.</desc>
    <defs></defs>
    <g id="Page-1" stroke="none" stroke-width="1" fill="none" fill-rule="evenodd">
        <g id="Realtime-Browser-Testing---REACT-Drive" transform="translate(-739.000000, -74.000000)" fill-rule="nonzero" stroke="#0EBAC5" stroke-width="1.25">
            <g id="Group-3" transform="translate(685.000000, 41.000000)">
                <g id="Startup" transform="translate(55.000000, 34.116142)">
                    <path d="M7.39285714,31.0204082 L18.9642857,31.0204082 M7.39285714,31.0204082 L18.9642857,31.0204082" id="Line" stroke-linecap="round"></path>
                    <path d="M13.1785714,31.0204082 L13.1785714,28.4081633" id="Line-2" stroke-linecap="round"></path>
                    <path d="M0.861702128,26.1416214 C0.40212766,26.1416214 0,25.7390002 0,25.2788616 L0,21.7127879 C0,21.7127879 0,21.6840292 0.0287234043,21.6840292 L0.143617021,21.7415465 L0.315957447,21.7415465 L9.79468085,21.7415465 L9.85212766,21.2526493 C10.0531915,19.7284404 11.2308511,18.491818 12.7244681,18.2329901 L13.212766,18.1467141 L13.212766,13.4878113 C13.212766,13.4878113 13.212766,13.4590526 13.2414894,13.4590526 C13.2702128,13.4590526 13.2702128,13.4590526 13.2702128,13.4878113 L13.2702128,18.1467141 L13.7585106,18.2042314 C15.3382979,18.405542 16.5734043,19.670923 16.7744681,21.2526493 L16.8319149,21.6265119 L16.7170213,21.0513387 C16.4297872,19.4120951 14.993617,18.2042314 13.3276596,18.2042314 C11.6617021,18.2042314 10.2255319,19.4120951 9.93829787,21.0513387 L9.82340426,21.7127879 L16.8319149,21.7127879 L24.2138298,21.7127879 C24.2138298,21.7127879 24.2425532,21.7127879 24.2425532,21.7415465 C24.2425532,21.7703052 24.2425532,21.7703052 24.2138298,21.7703052 L0.0287234043,21.7703052 L0.0287234043,25.250103 C0.0287234043,25.7102415 0.40212766,26.0841041 0.861702128,26.0841041 L25.8797872,26.0841041 C26.3393617,26.0841041 26.712766,25.7102415 26.712766,25.250103 L26.712766,7.87987268 C26.712766,7.41973413 26.3393617,7.04587156 25.8797872,7.04587156 L18.8712766,7.04587156 C18.8712766,7.04587156 18.8425532,7.04587156 18.8425532,7.0171129 C18.8425532,6.98835424 18.8425532,6.98835424 18.8712766,6.98835424 L25.8797872,6.98835424 C26.3393617,6.98835424 26.7414894,7.39097547 26.7414894,7.85111402 L26.7414894,25.2213443 C26.7414894,25.7102415 26.3680851,26.0841041 25.8797872,26.0841041 L0.861702128,26.0841041 L0.861702128,26.1416214 Z M20.5659574,21.0513387 C20.2787234,19.6996817 19.0723404,18.7218873 17.693617,18.7218873 C17.693617,18.7218873 17.6648936,18.7218873 17.6648936,18.6931286 C17.6648936,18.6931286 17.6648936,18.66437 17.693617,18.66437 C19.1585106,18.66437 20.4223404,19.7859577 20.6234043,21.2526493 L20.6808511,21.5977532 L20.5659574,21.0513387 Z M5.91702128,21.2526493 C6.11808511,19.7859577 7.38191489,18.66437 8.84680851,18.66437 C8.84680851,18.66437 8.87553191,18.66437 8.87553191,18.6931286 C8.87553191,18.6931286 8.87553191,18.7218873 8.84680851,18.7218873 C7.46808511,18.7218873 6.26170213,19.6996817 5.97446809,21.0513387 L5.85957447,21.5977532 L5.91702128,21.2526493 Z" id="Shape"></path>
                    <path d="M0.0287234043,19.2970605 C0,19.2970605 0,19.2683018 0,19.2683018 L0,7.87987268 C0,7.39097547 0.373404255,7.0171129 0.861702128,7.0171129 L7.89893617,7.0171129 C7.89893617,7.0171129 7.92765957,7.0171129 7.92765957,7.04587156 C7.92765957,7.07463022 7.92765957,7.07463022 7.89893617,7.07463022 L0.861702128,7.07463022 C0.40212766,7.07463022 0.0287234043,7.44849279 0.0287234043,7.90863134 L0.0287234043,19.2970605 C0.0287234043,19.2970605 0.0287234043,19.2970605 0.0287234043,19.2970605 Z" id="Shape"></path>
                    <path d="M10.4840426,16.4211945 C10.4553191,16.4211945 10.4553191,16.4211945 10.4840426,16.4211945 L10.4553191,14.436847 L8.67446809,14.436847 C8.67446809,14.436847 8.64574468,14.436847 8.64574468,14.4080884 L8.64574468,13.1427074 C8.64574468,12.7688448 8.7606383,12.4524995 8.96170213,12.1649129 L10.0244681,10.6119453 C10.1968085,10.3531174 10.3117021,10.0367721 10.3117021,9.72042689 L10.3117021,4.54386819 C10.3117021,3.91117768 10.5414894,3.27848717 10.943617,2.81834862 L13.2989362,0 L15.7117021,2.78958996 C16.1138298,3.27848717 16.343617,3.91117768 16.343617,4.54386819 L16.343617,9.74918555 C16.343617,10.0367721 16.4297872,10.3531174 16.6021277,10.5831867 L17.6074468,12.1649129 C17.7797872,12.4524995 17.8659574,12.7688448 17.8659574,13.08519 L17.8659574,14.3793297 C17.8659574,14.3793297 17.8659574,14.4080884 17.837234,14.4080884 L15.9989362,14.4080884 L15.9989362,16.3924359 C15.9989362,16.3924359 15.9989362,16.4211945 15.9702128,16.4211945 C15.9414894,16.4211945 15.9414894,16.4211945 15.9414894,16.3924359 L15.9414894,14.4943644 L15.4531915,14.436847 C15.4244681,14.436847 15.4244681,14.4080884 15.4244681,14.4080884 C15.4244681,14.4080884 15.4244681,14.3793297 15.4531915,14.3793297 L17.8085106,14.3793297 L17.8085106,13.08519 C17.8085106,12.7688448 17.7223404,12.4812582 17.55,12.1936716 L16.5734043,10.640704 C16.4010638,10.3818761 16.3148936,10.0655308 16.3148936,9.77794421 L16.3148936,4.54386819 C16.3148936,3.91117768 16.0851064,3.30724583 15.6829787,2.84710728 L13.2989362,0.0575173189 L10.943617,2.84710728 C10.5414894,3.33600449 10.3117021,3.93993634 10.3117021,4.54386819 L10.3117021,9.72042689 C10.3117021,10.0655308 10.2255319,10.3818761 10.0244681,10.640704 L8.96170213,12.1936716 C8.7606383,12.4812582 8.67446809,12.7976034 8.67446809,13.1427074 L8.67446809,14.3793297 L11.1446809,14.3793297 C11.1446809,14.3793297 11.1734043,14.3793297 11.1734043,14.4080884 C11.1734043,14.436847 11.1734043,14.436847 11.1446809,14.436847 L10.4840426,14.436847 L10.4840426,16.4211945 C10.4840426,16.4211945 10.4840426,16.4211945 10.4840426,16.4211945 Z" id="Shape"></path>
                </g>
            </g>
        </g>
    </g>
</svg>