<svg xmlns="http://www.w3.org/2000/svg" width="512" height="512" viewBox="0 0 512 512"><path fill="#25B7D3" d="M7.9,256C7.9,119,119,7.9,256,7.9C393,7.9,504.1,119,504.1,256c0,137-111.1,248.1-248.1,248.1C119,504.1,7.9,393,7.9,256z"></path><path fill="#FFF" d="M103.2,245.5l141.2-86.7c3.9-2.4,8.9-2.5,12.9-0.3c4,2.2,6.5,6.5,6.5,11.1v172.7c0,4.6-2.5,8.8-6.5,11.1c-1.9,1.1-4.1,1.6-6.2,1.6c-2.3,0-4.6-0.6-6.6-1.9l-141.2-86c-3.8-2.3-6.1-6.4-6.1-10.8C97.1,251.9,99.4,247.8,103.2,245.5z"></path><path fill="#FFF" d="M168.5,229.5h234.3c6.7,0,12,5.4,12,12v28.9c0,6.7-5.4,12-12,12H168.5c-6.7,0-12-5.4-12-12v-28.9C156.4,234.9,161.8,229.5,168.5,229.5z"></path></svg>