<svg xmlns="http://www.w3.org/2000/svg" width="48" height="48" viewBox="0 0 48 48">
    <defs>
        <linearGradient id="a" x1="9.214%" x2="65.736%" y1="11.262%" y2="54.613%">
            <stop offset="0%" stop-color="#FFB900"/>
            <stop offset="60%" stop-color="#F95D8F"/>
            <stop offset="99.91%" stop-color="#F95353"/>
        </linearGradient>
    </defs>
    <g fill="none" fill-rule="evenodd">
        <circle cx="24" cy="24" r="24" fill="url(#a)"/>
        <path fill="#FFF" fill-rule="nonzero" d="M30.434 23.863c-2.677 0-4.846 2.162-4.846 4.828 0 2.667 2.17 4.829 4.846 4.829s4.845-2.162 4.845-4.829c0-2.666-2.17-4.828-4.845-4.828zm-12.589 0c-2.676 0-4.845 2.162-4.845 4.829 0 2.666 2.17 4.828 4.845 4.828 2.676 0 4.846-2.162 4.846-4.828 0-2.667-2.17-4.828-4.846-4.828zm11.14-6.035c0 2.667-2.17 4.829-4.845 4.829-2.677 0-4.846-2.162-4.846-4.829 0-2.666 2.17-4.828 4.846-4.828s4.844 2.162 4.844 4.828z"/>
    </g>
</svg>
