<?xml version="1.0" encoding="UTF-8"?>
<svg width="27px" height="27px" viewBox="0 0 28 28" version="1.1" xmlns="http://www.w3.org/2000/svg" xmlns:xlink="http://www.w3.org/1999/xlink">
    <!-- Generator: Sketch 51.3 (57544) - http://www.bohemiancoding.com/sketch -->
    <title>Dashboard</title>
    <desc>Created with Sketch.</desc>
    <defs></defs>
    <g id="Icons" stroke="none" stroke-width="1" fill="none" fill-rule="evenodd">
        <g id="Symbols" transform="translate(-132.000000, -7.000000)" fill-rule="nonzero">
            <g id="Speedometer" transform="translate(132.000000, 7.000000)">
                <rect id="BOX" opacity="0" x="0" y="0" width="28" height="28"></rect>
                <path d="M12.014174,7.07488702 C12.561412,6.97027314 12.9234186,6.42586252 12.8235547,5.85801839 C12.7236908,5.28933735 12.197392,4.91649349 11.65257,5.0160859 C6.05978938,6.07854444 2,11.1443669 2,17.0621647 C2,19.0661482 2.48442041,21.0642732 3.40212127,22.83978 C3.58372859,23.1921195 3.93083615,23.3913043 4.29002402,23.3913043 C4.45028946,23.3913043 4.61337364,23.3519695 4.76518287,23.2670231 C5.25524076,22.9941901 5.43926414,22.3598115 5.17591339,21.8505512 C4.40438429,20.356665 4.01338493,18.7456113 4.01338493,17.0621647 C4.01338493,12.1553554 7.37895919,7.95489896 12.014174,7.07488702 Z M25.2006373,14.0773216 C25.1958051,14.035476 25.1905703,13.9948858 25.1809061,13.9530403 C25.1776847,13.9409051 25.1776847,13.9283514 25.1744633,13.9162162 C25.1664097,13.8819028 25.152316,13.8509371 25.1406384,13.8182976 C25.137417,13.80951 25.1366116,13.7986302 25.1325849,13.7898426 C25.1309741,13.786495 25.1293634,13.7839842 25.1277527,13.7814735 C24.942924,13.3040158 24.4468259,13.0261613 23.9535466,13.1546272 C23.8315355,13.1864298 23.7216047,13.2429213 23.6241569,13.3132218 L16.1762433,16.5629473 C15.6382669,15.7913153 14.7676792,15.2870764 13.783134,15.2870764 C12.1535002,15.2870764 10.8282903,16.6650504 10.8282903,18.3593768 C10.8282903,20.0528663 12.1535002,21.4316772 13.783134,21.4316772 C15.3378698,21.4316772 16.6135505,20.1763106 16.7283135,18.5907827 L24.4411885,15.2259819 C24.4496447,15.2243081 24.4593089,15.225145 24.4685705,15.2226343 C24.7689675,15.1385247 24.9956747,14.9121403 25.1144644,14.632612 C25.1245313,14.6104339 25.1350009,14.5878373 25.1434571,14.5648222 C25.1527187,14.5363673 25.1607722,14.5074938 25.1688258,14.477365 C25.1796981,14.4371933 25.1893623,14.39744 25.1954025,14.3555945 C25.1986239,14.3342532 25.2002346,14.3137489 25.2018453,14.2928261 C25.2058721,14.2463776 25.2082881,14.1986737 25.2066774,14.1513882 C25.2058721,14.1262809 25.2026506,14.1020104 25.2006373,14.0773216 Z M13.783134,19.3389812 C13.2640833,19.3389812 12.8416752,18.8991844 12.8416752,18.3589584 C12.8416752,17.8187323 13.2640833,17.3789355 13.783134,17.3789355 C14.30299,17.3789355 14.7262035,17.8187323 14.7262035,18.3589584 C14.7262035,18.8991844 14.30299,19.3389812 13.783134,19.3389812 Z M24.4870936,19.4289491 C24.4456179,19.4289491 24.4029342,19.4260199 24.3602504,19.4209984 C23.8089856,19.3490241 23.4171809,18.8259547 23.4864413,18.2530891 L23.4928842,18.1991084 C23.5544937,17.6254058 24.0538132,17.2069503 24.6042726,17.275577 C25.1571481,17.3387638 25.554993,17.8559748 25.4937861,18.4305143 L25.4845245,18.5121131 C25.4204989,19.0414593 24.9872185,19.4289491 24.4870936,19.4289491 Z M19.0509543,8.50935251 L19.0006197,8.47587607 C18.530293,8.16789282 18.3905641,7.52137905 18.6869343,7.03262301 C18.9841099,6.54470388 19.6054405,6.39866291 20.0757673,6.70664617 L20.1361688,6.74765481 C20.6040795,7.05898571 20.7409896,7.70549947 20.441398,8.19258169 C20.2497237,8.5047495 19.9247634,8.67464244 19.5929575,8.67464244 C19.4073235,8.67464244 19.2192733,8.62149859 19.0509543,8.50935251 Z M15.6825613,7.09999435 L15.6378642,7.09120678 C15.0910288,6.9865929 14.7294249,6.44134537 14.8300941,5.87350124 C14.929958,5.30440175 15.4546462,4.92946561 16.0018842,5.03324257 L16.0860437,5.05123616 C16.6308656,5.16631143 16.9815973,5.7186727 16.8708611,6.28526147 C16.7734133,6.78071279 16.3534212,7.12133558 15.8855105,7.12133558 C15.8186662,7.12133558 15.7510164,7.11464029 15.6825613,7.09999435 Z M22.5043122,11.5259983 C22.1954589,11.5259983 21.8902298,11.378702 21.6925154,11.100429 L21.653053,11.0447745 C21.3232606,10.5798704 21.4195004,9.92498751 21.8676798,9.5826909 C22.3142486,9.23913893 22.9452435,9.33998671 23.2746332,9.80489078 L23.3140956,9.85970845 C23.643888,10.3254494 23.5476482,10.9803323 23.1002741,11.3226289 C22.9202775,11.4598823 22.7112881,11.5259983 22.5043122,11.5259983 Z M22.4177366,21.7990811 C22.6758526,21.2868916 23.2838948,21.0889621 23.7771741,21.3588659 C24.2696481,21.6279328 24.4593089,22.2602191 24.201193,22.7719902 L24.1649521,22.8414538 C23.9833447,23.192538 23.6358345,23.3913043 23.2778547,23.3913043 C23.1163812,23.3913043 22.9528943,23.3519695 22.8010851,23.2661861 C22.3110272,22.9920978 22.1286145,22.3581377 22.3919653,21.8488773 L22.4177366,21.7990811 Z" fill="#6C7688"></path>
            </g>
        </g>
    </g>
</svg>