<?xml version="1.0" encoding="utf-8"?>
<!-- Generator: Adobe Illustrator 23.0.1, SVG Export Plug-In . SVG Version: 6.00 Build 0)  -->
<svg width="27px" height="27px" version="1.1" id="Layer_1" xmlns="http://www.w3.org/2000/svg" xmlns:xlink="http://www.w3.org/1999/xlink" x="0px" y="0px"
	 viewBox="0 0 27 27" style="enable-background:new 0 0 27 27;" xml:space="preserve">
<style type="text/css">
	.st0{fill:#6C7688;}
</style>
<title>Integrations</title>
<desc>Created with Sketch.</desc>
<g id="Icons">
	<g id="Symbols" transform="translate(-162.000000, -7.000000)">
		<g id="Integtaions" transform="translate(162.000000, 7.000000)">
			<g>
				<path id="Integrations_1_" class="st0" d="M17.5,6c-0.1,0-0.1,0-0.2,0h-0.2H4.4C3.6,6,3,6.6,3,7.4v13.1C3,21.4,3.6,22,4.4,22
					h12.7h0.2c0.1,0,0.1,0,0.2,0c4.2-0.2,7.5-3.7,7.5-8S21.7,6.2,17.5,6z M4.4,20.8c-0.1,0-0.2-0.1-0.2-0.2V7.4
					c0-0.1,0.1-0.2,0.2-0.2H13c-2.2,1.4-3.7,3.9-3.7,6.8s1.5,5.4,3.7,6.8H4.4z M10.5,14c0-3.7,3-6.8,6.7-6.8c0.1,0,0.2,0,0.2,0
					c0.1,0,0.2,0.1,0.2,0.2v13.1c0,0.1-0.1,0.2-0.2,0.2s-0.1,0-0.2,0C13.5,20.8,10.5,17.7,10.5,14z M18.7,20.6L18.7,20.6V7.4l0,0
					c2.9,0.7,5.1,3.4,5.1,6.6S21.6,19.9,18.7,20.6z"/>
				<path class="st0" d="M17.3,22.1H4.4c-0.8,0-1.5-0.7-1.5-1.5V7.4c0-0.4,0.2-0.8,0.4-1.1C3.6,6.1,4,5.9,4.4,5.9l0,0h12.9h0.1l0,0
					C21.7,6.1,25,9.6,25,14c0,4.3-3.3,7.9-7.6,8.1l0,0C17.4,22.1,17.4,22.1,17.3,22.1z M4.4,6.1c-0.3,0-0.7,0.1-0.9,0.4
					C3.2,6.7,3.1,7.1,3.1,7.4v13.1c0,0.7,0.6,1.3,1.3,1.3h12.9h0.1l0,0c4.2-0.2,7.4-3.6,7.4-7.9S21.5,6.2,17.4,6h-0.1h-0.1H4.4
					C4.4,6.1,4.4,6.1,4.4,6.1z M17.1,20.9c-3.7,0-6.8-3.1-6.8-6.9s3-6.9,6.8-6.9h0.1h0.1c0.2,0,0.3,0.2,0.3,0.3v13.1
					c0,0.1-0.1,0.3-0.2,0.3s-0.1,0-0.1,0C17.2,20.9,17.2,20.9,17.1,20.9z M17.1,7.3c-3.6,0-6.6,3-6.6,6.7s3,6.7,6.6,6.7h0.1h0.1
					l0.1-0.1V7.4c0-0.1,0-0.1-0.1-0.1c0,0,0,0-0.1,0C17.2,7.3,17.2,7.3,17.1,7.3z M13.4,20.9h-9c-0.2,0-0.3-0.1-0.3-0.3V7.4
					c0-0.2,0.1-0.3,0.3-0.3h9l-0.3,0.2c-2.3,1.5-3.7,4-3.7,6.7s1.4,5.3,3.7,6.7L13.4,20.9z M4.4,7.3C4.3,7.3,4.3,7.4,4.4,7.3
					L4.3,20.5c0,0.1,0.1,0.1,0.1,0.1h8.3c-2.2-1.5-3.5-4-3.5-6.7s1.3-5.2,3.5-6.7L4.4,7.3L4.4,7.3z M18.6,20.7v-0.2V7.4V7.3h0.1
					c3.1,0.8,5.2,3.5,5.2,6.7s-2.1,5.9-5.2,6.7H18.6z M18.8,7.5v12.9c2.9-0.8,4.9-3.4,4.9-6.5S21.7,8.3,18.8,7.5z"/>
			</g>
		</g>
	</g>
</g>
</svg>
