<?xml version="1.0" encoding="utf-8"?>
<!-- Generator: Adobe Illustrator 23.0.1, SVG Export Plug-In . SVG Version: 6.00 Build 0)  -->
<svg width="27px" height="27px" version="1.1" id="Layer_1" xmlns="http://www.w3.org/2000/svg" xmlns:xlink="http://www.w3.org/1999/xlink" x="0px" y="0px"
	 viewBox="0 0 27 27" style="enable-background:new 0 0 27 27;" xml:space="preserve">
<style type="text/css">
	.st0{fill:#6C7688;}
</style>
<title>Issue Tracker</title>
<desc>Created with Sketch.</desc>
<g id="Icons">
	<g id="Symbols" transform="translate(-132.000000, -157.000000)">
		<g id="Issue-Tracker" transform="translate(132.000000, 157.000000)">
			<path id="Shape" class="st0" d="M24.3,16.1h-3.2c-0.1-1.4-0.7-2.7-1.5-3.8l2.5-2.1c0.2-0.2,0.3-0.5,0.3-0.7
				c0-0.3-0.2-0.5-0.5-0.6c-0.2-0.1-0.5-0.1-0.7,0.1l-2.6,2.2c-0.2-0.2-0.4-0.3-0.5-0.4c0.5-1.9-0.3-3.9-1.9-4.9L17,4.1
				c0.2-0.4,0-0.8-0.3-1c-0.3-0.2-0.8-0.1-1,0.3l-1,1.9c-0.4-0.1-0.9-0.1-1.3,0l-1-1.9c-0.2-0.3-0.6-0.4-1-0.2
				c-0.3,0.2-0.5,0.6-0.3,1l0.9,1.7c-1.6,1-2.4,3-1.9,4.9c-0.2,0.1-0.4,0.3-0.5,0.4L6.8,9C6.5,8.7,6,8.8,5.8,9.1
				c-0.3,0.3-0.2,0.8,0.1,1.1l2.5,2.1c-0.8,1.1-1.3,2.4-1.5,3.8H3.7c-0.4,0-0.7,0.4-0.7,0.8c0,0.4,0.3,0.8,0.7,0.8h3.1
				c0.1,1.4,0.6,2.8,1.4,3.9l-2.4,2c-0.3,0.3-0.4,0.8-0.1,1.1c0.3,0.3,0.7,0.4,1,0.1l2.5-2.1c1.2,1.1,2.8,1.8,4.5,1.8h0H14
				c1.7,0,3.3-0.6,4.6-1.8l2.5,2.1c0.3,0.3,0.8,0.2,1-0.1c0.3-0.3,0.2-0.8-0.1-1.1l-2.4-2c0.8-1.1,1.3-2.5,1.4-3.9h3.1
				c0.4,0,0.7-0.4,0.7-0.8C25,16.5,24.7,16.1,24.3,16.1z M11.3,10c-0.1-1.1,0.4-2.1,1.2-2.7s2-0.6,2.8,0s1.3,1.6,1.2,2.7h0
				c-0.2-0.1-0.4-0.2-0.6-0.2h0c-0.2-0.1-0.4-0.1-0.6-0.2h0c-0.2,0-0.4-0.1-0.6-0.1h0c-0.2,0-0.4,0-0.7,0s-0.4,0-0.7,0h0
				c-0.2,0-0.4,0.1-0.6,0.1h0c-0.2,0-0.4,0.1-0.6,0.2h0C11.8,9.8,11.6,9.9,11.3,10L11.3,10z M14.6,22.9v-8.6c0-0.4-0.3-0.8-0.7-0.8
				s-0.7,0.4-0.7,0.8v8.6c-2.4-0.4-4.3-2.3-4.7-4.9s0.7-5,2.9-6.3l0.1,0c0.1-0.1,0.2-0.1,0.3-0.2l0.2-0.1l0.2-0.1
				c1.2-0.5,2.6-0.5,3.9,0l0.2,0.1l0.2,0.1c0.1,0.1,0.2,0.1,0.3,0.2l0.1,0c2.2,1.2,3.4,3.8,2.9,6.4C19.1,20.7,17.1,22.7,14.6,22.9z"
				/>
		</g>
	</g>
</g>
</svg>
