<svg xmlns="http://www.w3.org/2000/svg" width="48" height="48" viewBox="0 0 48 48">
    <g fill="none" fill-rule="evenodd">
        <circle cx="24" cy="24" r="24" fill="#274970"/>
        <g fill="#FFF" fill-rule="nonzero">
            <path d="M18.476 13.378a1.41 1.41 0 1 0 0 2.818 1.41 1.41 0 0 0 0-2.818M28.808 13.378a1.409 1.409 0 1 0 0 2.819 1.409 1.409 0 0 0 0-2.82M23.446 12c-.86 0-1.557.689-1.557 1.544a1.55 1.55 0 0 0 1.557 1.544 1.55 1.55 0 0 0 1.557-1.544c0-.855-.696-1.544-1.557-1.544M32.785 17.613a.493.493 0 0 0-.47-.067 24.22 24.22 0 0 1-3.103.928.608.608 0 0 0-.427.369c-.712 1.931-2.53 3.77-4.438 5.697-.077.072-.184.167-.359.167a.495.495 0 0 1-.358-.167c-1.908-1.927-3.726-3.76-4.438-5.691a.61.61 0 0 0-.427-.369 24.253 24.253 0 0 1-3.105-.937.495.495 0 0 0-.469.066.48.48 0 0 0-.189.427c.162 1.606.803 3.176 1.96 4.822 1.087 1.547 2.505 2.979 3.876 4.364 2.526 2.551 4.913 4.962 5.122 7.756a.486.486 0 0 0 .487.448h2.968a.49.49 0 0 0 .354-.15.48.48 0 0 0 .134-.357c-.093-1.869-.804-3.74-2.171-5.72-.287-.415-.593-.82-.914-1.215a.348.348 0 0 1 .024-.462l.297-.3c1.371-1.385 2.79-2.817 3.877-4.364 1.156-1.646 1.797-3.207 1.959-4.813a.494.494 0 0 0-.19-.432M20.612 29.369a.483.483 0 0 0-.362-.148.515.515 0 0 0-.421.228c-1.305 1.888-1.98 3.67-2.073 5.461a.477.477 0 0 0 .14.36.53.53 0 0 0 .372.151h3.098a.505.505 0 0 0 .511-.45c.067-.864.35-1.73.865-2.638a.656.656 0 0 0-.063-.737c-.51-.63-1.136-1.304-2.067-2.227"/>
            <path d="M23.975 19.057c.87 0 1.374-.057 1.55-.057.215 0 .42.193.42.462a.538.538 0 0 1-.034.185c-.115.338-.64 1.553-1.618 2.596a.424.424 0 0 1-.32.139h-.001a.424.424 0 0 1-.32-.14c-.978-1.042-1.503-2.257-1.618-2.595a.534.534 0 0 1-.034-.185c0-.27.205-.462.42-.462.177 0 .68.057 1.55.057h.005"/>
        </g>
    </g>
</svg>
