<svg width="27" height="27" viewBox="0 0 27 27" fill="none" xmlns="http://www.w3.org/2000/svg">
<path fill-rule="evenodd" clip-rule="evenodd" d="M5.36467 24C4.05413 24 3 22.9444 3 21.632V5.54066C3 4.68474 3.68376 4 4.53846 4H10.4644C11.2621 4 12.1168 4.25678 12.8006 4.68474C13.7407 5.25535 14.2821 6.1398 14.4815 7.2525L14.51 7.39515H20.6353C21.9459 7.39515 23 8.45078 23 9.7632V21.632C23 22.9444 21.9459 24 20.6353 24H5.36467ZM8.75499 12.1312C8.18519 12.1312 7.75783 12.5877 7.75783 13.1298V21.5178C7.75783 21.8317 7.70085 22.117 7.58689 22.4023L7.50142 22.6305H20.5783C21.1481 22.6305 21.5755 22.174 21.5755 21.632V9.7632C21.5755 9.19258 21.1197 8.76462 20.5783 8.76462H6.39031V7.39515H13.114L13.057 7.19544C12.6011 5.48359 10.8063 5.398 10.4644 5.36947H4.36752V21.632C4.36752 22.2026 4.82336 22.6305 5.36467 22.6305C5.42165 22.6305 5.47863 22.6305 5.53561 22.602C5.99145 22.5164 6.36182 22.0599 6.36182 21.5178V13.1583C6.36182 11.8459 7.41595 10.7903 8.7265 10.7903H19.5527V12.1598H8.75499V12.1312Z" fill="#6D7788"/>
</svg>
