<?xml version="1.0" encoding="UTF-8"?>
<svg width="27px" height="27px" viewBox="0 0 27 27" version="1.1" xmlns="http://www.w3.org/2000/svg" xmlns:xlink="http://www.w3.org/1999/xlink">
    <!-- Generator: Sketch 51.3 (57544) - http://www.bohemiancoding.com/sketch -->
    <title>Projects</title>
    <desc>Created with Sketch.</desc>
    <defs></defs>
    <g id="Icons" stroke="none" stroke-width="1" fill="none" fill-rule="evenodd">
        <g id="Side-Panel" transform="translate(-16.000000, -479.000000)" fill="#6D7788">
            <g id="Projects" transform="translate(16.000000, 479.000000)">
                <path d="M2.36467236,20 C1.05413105,20 0,18.9443652 0,17.6319544 L0,1.54065621 C0,0.684736091 0.683760684,0 1.53846154,0 L7.46438746,0 C8.26210826,0 9.11680912,0.256776034 9.8005698,0.684736091 C10.7407407,1.2553495 11.2820513,2.13980029 11.4814815,3.25249643 L11.5099715,3.39514979 L17.6353276,3.39514979 C18.9458689,3.39514979 20,4.45078459 20,5.76319544 L20,17.6319544 C20,18.9443652 18.9458689,20 17.6353276,20 L2.36467236,20 Z M5.75498575,8.13124108 C5.18518519,8.13124108 4.75783476,8.58773181 4.75783476,9.12981455 L4.75783476,17.5178317 C4.75783476,17.831669 4.7008547,18.1169757 4.58689459,18.4022825 L4.5014245,18.6305278 L17.5783476,18.6305278 C18.1481481,18.6305278 18.5754986,18.1740371 18.5754986,17.6319544 L18.5754986,5.76319544 C18.5754986,5.19258203 18.1196581,4.76462197 17.5783476,4.76462197 L3.39031339,4.76462197 L3.39031339,3.39514979 L10.1139601,3.39514979 L10.0569801,3.19543509 C9.6011396,1.48359486 7.80626781,1.39800285 7.46438746,1.36947218 L1.36752137,1.36947218 L1.36752137,17.6319544 C1.36752137,18.2025678 1.82336182,18.6305278 2.36467236,18.6305278 C2.42165242,18.6305278 2.47863248,18.6305278 2.53561254,18.6019971 C2.99145299,18.5164051 3.36182336,18.0599144 3.36182336,17.5178317 L3.36182336,9.15834522 C3.36182336,7.84593438 4.41595442,6.79029957 5.72649573,6.79029957 L16.5527066,6.79029957 L16.5527066,8.15977175 L5.75498575,8.15977175 L5.75498575,8.13124108 Z" id="Shape"></path>
            </g>
        </g>
    </g>
</svg>
