<?xml version="1.0" encoding="utf-8"?>
<!-- Generator: Adobe Illustrator 23.0.1, SVG Export Plug-In . SVG Version: 6.00 Build 0)  -->
<svg width="27px" height="27px" version="1.1" id="Layer_1" xmlns="http://www.w3.org/2000/svg" xmlns:xlink="http://www.w3.org/1999/xlink" x="0px" y="0px"
	 viewBox="0 0 28 28" style="enable-background:new 0 0 28 28;" xml:space="preserve">
<style type="text/css">
	.st0{fill:#6C7688;}
</style>
<title>Realtime</title>
<desc>Created with Sketch.</desc>
<g id="Icons">
	<g id="Symbols" transform="translate(-132.000000, -67.000000)">
		<g id="Real" transform="translate(132.000000, 67.000000)">
			<path id="Realtime" class="st0" d="M14,4C8.5,4,4,8.5,4,14c0,0.5,0.4,0.9,0.9,0.9s0.9-0.4,0.9-0.9c0-4.5,3.7-8.2,8.2-8.2
				s8.2,3.7,8.2,8.2s-3.7,8.2-8.2,8.2c-2.4,0-4.6-1-6.1-2.8l0.4-0.3c0.2-0.2,0.4-0.5,0.3-0.7c0-0.3-0.2-0.5-0.5-0.6l-2.7-1.2
				c-0.3-0.1-0.7-0.1-0.9,0.2c-0.1,0.2-0.2,0.4-0.2,0.6l0.4,2.9C4.7,20.8,5,21,5.4,21c0.2,0,0.3-0.1,0.5-0.2l0.5-0.4
				C8.3,22.7,11.1,24,14,24c5.5,0,10-4.5,10-10S19.5,4,14,4z M19.5,11.3c0,0,0-0.1-0.1-0.2c-0.1-0.3-0.4-0.4-0.7-0.4
				c-0.1,0-0.3,0-0.4,0.1l-4,2c-0.2-0.1-0.4-0.1-0.6,0l-2.8-1.1c-0.2-0.1-0.4-0.1-0.5,0c-0.2,0.1-0.4,0.2-0.5,0.5
				c-0.2,0.4,0,0.9,0.4,1l2.5,1.2c0.2,0.5,0.6,0.8,1.2,0.8c0.1,0,0.2,0,0.4-0.1c0.4-0.1,0.6-0.4,0.8-0.7l3.9-2.3
				C19.4,12,19.6,11.6,19.5,11.3z M14.2,14.7c-0.1,0-0.1,0-0.2,0c-0.3,0-0.6-0.2-0.7-0.5c-0.1-0.4,0.1-0.7,0.5-0.9
				c0.4-0.1,0.7,0.1,0.9,0.5C14.8,14.2,14.6,14.6,14.2,14.7z"/>
		</g>
	</g>
</g>
</svg>
