<?xml version="1.0" encoding="UTF-8"?>
<svg width="27px" height="27px" viewBox="0 0 28 28" version="1.1" xmlns="http://www.w3.org/2000/svg" xmlns:xlink="http://www.w3.org/1999/xlink">
    <!-- Generator: Sketch 51.3 (57544) - http://www.bohemiancoding.com/sketch -->
    <title>Automation</title>
    <desc>Created with Sketch.</desc>
    <defs></defs>
    <g id="Icons" stroke="none" stroke-width="1" fill="none" fill-rule="evenodd">
        <g id="Symbols" transform="translate(-132.000000, -97.000000)" fill="#6C7688" fill-rule="nonzero">
            <g id="Robot" transform="translate(132.000000, 97.000000)">
                <path d="M23.1445783,14.1320144 L22.0843373,14.1320144 L22.0843373,14.3938935 C21.1036145,11.3560952 18.2409639,9.2872497 15.0072289,9.2872497 L14.4771084,9.2872497 L14.4771084,7.13984049 C15.6168675,6.87796132 16.3325301,5.75188088 16.0674699,4.62580044 C15.8024096,3.49972 14.6626506,2.79264624 13.5228916,3.05452541 C12.3831325,3.31640458 11.6674699,4.44248502 11.9325301,5.56856546 C12.1180723,6.30182714 12.6746988,6.90414923 13.4168675,7.11365257 L13.4168675,9.2872497 L12.886747,9.2872497 C9.75903614,9.2872497 6.97590361,11.2251556 5.91566265,14.1320144 L4.85542169,14.1320144 C3.82168675,14.1320144 3,14.9438398 3,15.9651686 L3,18.3220811 C3,19.3434099 3.82168675,20.1552353 4.85542169,20.1552353 L5.46506024,20.1552353 L5.46506024,21.8574499 C5.46506024,23.5858525 6.89638554,25 8.64578313,25 L19.2481928,25 C20.9975904,25 22.4289157,23.5858525 22.4289157,21.8574499 L22.4289157,20.1552353 L23.1445783,20.1552353 C24.1783133,20.1552353 25,19.3434099 25,18.3220811 L25,15.9651686 C25,14.9438398 24.1783133,14.1320144 23.1445783,14.1320144 Z M12.939759,5.09718295 C12.939759,4.52104877 13.4168675,4.04966626 14,4.04966626 C14.5831325,4.04966626 15.060241,4.52104877 15.060241,5.09718295 C15.060241,5.67331713 14.5831325,6.14469963 14,6.14469963 C13.4168675,6.14469963 12.939759,5.67331713 12.939759,5.09718295 Z M4.85542169,19.1077186 C4.40481928,19.1077186 4.06024096,18.7672757 4.06024096,18.3220811 L4.06024096,15.9651686 C4.06024096,15.519974 4.40481928,15.1795311 4.85542169,15.1795311 L5.62409639,15.1795311 C5.51807229,15.6509136 5.49156627,16.148484 5.49156627,16.6198665 L5.49156627,19.1077186 L4.85542169,19.1077186 Z M17.3927711,23.9524833 L14.4771084,23.9524833 L14.4771084,20.5480541 L16.3325301,20.5480541 C16.9156627,20.5480541 17.3927711,21.0194366 17.3927711,21.5955708 L17.3927711,23.9524833 Z M13.4168675,23.9524833 L10.5012048,23.9524833 L10.5012048,21.5955708 C10.5012048,21.0194366 10.9783133,20.5480541 11.5614458,20.5480541 L13.4168675,20.5480541 L13.4168675,23.9524833 Z M21.3686747,21.8574499 C21.3686747,23.0097183 20.4144578,23.9524833 19.2481928,23.9524833 L18.453012,23.9524833 L18.453012,21.5955708 C18.453012,20.4433024 17.4987952,19.5005374 16.3325301,19.5005374 L11.5614458,19.5005374 C10.3951807,19.5005374 9.44096386,20.4433024 9.44096386,21.5955708 L9.44096386,23.9524833 L8.64578313,23.9524833 C7.47951807,23.9524833 6.5253012,23.0097183 6.5253012,21.8574499 L6.5253012,16.6198665 C6.5253012,13.1368735 9.36144578,10.3347664 12.886747,10.3347664 L15.0072289,10.3347664 C18.5325301,10.3347664 21.3686747,13.1368735 21.3686747,16.6198665 L21.3686747,21.8574499 Z M23.939759,18.3220811 C23.939759,18.7672757 23.5951807,19.1077186 23.1445783,19.1077186 L22.4289157,19.1077186 L22.4289157,16.6198665 C22.4289157,16.148484 22.3759036,15.6509136 22.2698795,15.1795311 L23.1180723,15.1795311 C23.5686747,15.1795311 23.913253,15.519974 23.913253,15.9651686 L23.913253,18.3220811 L23.939759,18.3220811 Z M11.0843373,13.2154373 C9.91807229,13.2154373 8.96385542,14.1582023 8.96385542,15.3104706 C8.96385542,16.462739 9.91807229,17.405504 11.0843373,17.405504 C12.2506024,17.405504 13.2048193,16.462739 13.2048193,15.3104706 C13.2048193,14.1582023 12.2506024,13.2154373 11.0843373,13.2154373 Z M11.0843373,16.3579873 C10.5012048,16.3579873 10.0240964,15.8866048 10.0240964,15.3104706 C10.0240964,14.7343365 10.5012048,14.262954 11.0843373,14.262954 C11.6674699,14.262954 12.1445783,14.7343365 12.1445783,15.3104706 C12.1445783,15.8866048 11.6674699,16.3579873 11.0843373,16.3579873 Z M16.9156627,13.2154373 C15.7493976,13.2154373 14.7951807,14.1582023 14.7951807,15.3104706 C14.7951807,16.462739 15.7493976,17.405504 16.9156627,17.405504 C18.0819277,17.405504 19.0361446,16.462739 19.0361446,15.3104706 C19.0361446,14.1582023 18.0819277,13.2154373 16.9156627,13.2154373 Z M16.9156627,16.3579873 C16.3325301,16.3579873 15.8554217,15.8866048 15.8554217,15.3104706 C15.8554217,14.7343365 16.3325301,14.262954 16.9156627,14.262954 C17.4987952,14.262954 17.9759036,14.7343365 17.9759036,15.3104706 C17.9759036,15.8866048 17.4987952,16.3579873 16.9156627,16.3579873 Z" id="ROBOT"></path>
            </g>
        </g>
    </g>
</svg>