<?xml version="1.0" encoding="UTF-8"?>
<svg width="48px" height="48px" viewBox="0 0 48 48" version="1.1" xmlns="http://www.w3.org/2000/svg" xmlns:xlink="http://www.w3.org/1999/xlink">
    <!-- Generator: Sketch 51.3 (57544) - http://www.bohemiancoding.com/sketch -->
    <title>Slack Dark</title>
    <desc>Created with Sketch.</desc>
    <defs></defs>
    <g id="Icons" stroke="none" stroke-width="1" fill="none" fill-rule="evenodd">
        <g id="Icons-2.0" transform="translate(-609.000000, -503.000000)">
            <g id="Slack-Dark" transform="translate(609.000000, 503.000000)">
                <circle id="Oval" fill="#4A154B" cx="24" cy="24" r="24"></circle>
                <g id="Slack-Vector" transform="translate(12.000000, 12.000000)" fill-rule="nonzero">
                    <path d="M8.70306897,1.87125001e-16 C7.39216474,1.87125001e-16 6.32961308,1.06283892 6.32961308,2.37354139 C6.32898044,3.00241273 6.57868491,3.60577791 7.0237943,4.05090334 C7.46890369,4.49602876 8.07295691,4.74645202 8.70306897,4.74708278 L11.0769231,4.74708278 L11.0769222,2.37354139 C11.07802,1.06392035 10.0152736,0.00131354318 8.70306897,0 M8.70306897,6.32944371 L2.37345589,6.32944371 C1.06255166,6.32944371 0,7.39228263 0,8.70338169 C0,10.0140842 1.06255166,11.0769231 2.37345589,11.0769231 L8.70346633,11.0769231 C10.0139732,11.0769231 11.0769222,10.0140842 11.0769222,8.70338169 C11.0769222,7.39228263 10.0139732,6.32944371 8.70306897,6.32944371" id="Shape" fill="#36C5F0"></path>
                    <path d="M23.9999992,8.70307009 C23.9999992,7.39201798 22.9370501,6.32921711 21.6261459,6.32921711 C20.3152417,6.32921711 19.25269,7.39201798 19.25269,8.70307009 L19.25269,11.0765265 L21.6261459,11.0765265 C22.9383505,11.075213 24.001097,10.0126443 23.9999992,8.70307009 M17.6703861,8.70307009 L17.6703861,2.37345642 C17.6714839,1.06388226 16.6087375,0.00131349615 15.2965328,0 C13.9856286,0 12.9230769,1.06280087 12.9230769,2.37345642 L12.9230769,8.70267353 C12.9230769,10.0141222 13.9856286,11.0769231 15.2965328,11.0769231 C16.6087375,11.0756096 17.6714839,10.0130408 17.6703861,8.70346666" id="Shape" fill="#2EB67D"></path>
                    <path d="M15.2965338,24 C16.6087383,23.9986865 17.6714846,22.9360797 17.6703868,21.6264586 C17.6714846,20.3168376 16.6087383,19.2542308 15.2965338,19.2529172 L12.9230781,19.2529172 L12.9230781,21.6264586 C12.9230781,22.9371611 13.9856297,24 15.2965338,24 M15.2965338,17.6705563 L21.6265435,17.6705563 C22.9370502,17.6705563 23.9999992,16.6077174 23.9999992,15.2966183 C24.001097,13.9869973 22.9383507,12.9243905 21.6261462,12.9230769 L15.2965338,12.9230769 C13.9856297,12.9230769 12.9230781,13.9859158 12.9230781,15.2966183 C12.9224455,15.9254896 13.1721499,16.5288548 13.6172593,16.9739803 C14.0623686,17.4191057 14.6664218,17.6695289 15.2965338,17.6701597" id="Shape" fill="#ECB22E"></path>
                    <path d="M1.19920324e-06,15.2966183 C-0.000631443183,15.9254896 0.249072997,16.5288548 0.694182326,16.9739803 C1.13929165,17.4191057 1.74334478,17.6695289 2.37345676,17.6701597 C3.68566123,17.6688462 4.74840751,16.6062394 4.74730969,15.2966183 L4.74731053,12.9230769 L2.37345676,12.9230769 C1.06255271,12.9230769 1.19920324e-06,13.9859158 1.19920324e-06,15.2966183 M6.32961339,15.2966183 L6.32961339,21.626062 C6.32961339,22.9371611 7.3921649,24 8.70306895,24 C10.0152734,23.9986865 11.0780197,22.9360797 11.0769219,21.6264586 L11.0769219,15.2966183 C11.0775545,14.6676783 10.8277955,14.0642531 10.3826003,13.6191163 C9.93740502,13.1739794 9.33324981,12.9236026 8.70306895,12.9230769 C7.3921649,12.9230769 6.32961339,13.9859158 6.32961339,15.2966183" id="Shape" fill="#E01E5A"></path>
                </g>
            </g>
        </g>
    </g>
</svg>