<?xml version="1.0" encoding="utf-8"?>
<!-- Generator: Adobe Illustrator 23.0.1, SVG Export Plug-In . SVG Version: 6.00 Build 0)  -->
<svg width="27px" height="27px"  version="1.1" id="Layer_1" xmlns="http://www.w3.org/2000/svg" xmlns:xlink="http://www.w3.org/1999/xlink" x="0px" y="0px"
	 viewBox="0 0 27 27" style="enable-background:new 0 0 28 28;" xml:space="preserve">
<style type="text/css">
	.st0{fill:#6C7688;}
</style>
<title>Test Logs</title>
<desc>Created with Sketch.</desc>
<g id="Icons">
	<g id="Symbols" transform="translate(-132.000000, -127.000000)">
		<g id="BOX" transform="translate(132.000000, 127.000000)">
			<path class="st0" d="M14,2c-0.1,0-0.1,0-0.2,0L3.3,6.3C3.1,6.4,3,6.6,3,6.8v14.4c0,0.2,0.1,0.4,0.3,0.5L13.8,26
				c0.1,0.1,0.3,0.1,0.4,0l10.5-4.3c0.2-0.1,0.3-0.3,0.3-0.5V6.8c0-0.2-0.1-0.4-0.3-0.5L14.2,2C14.1,2,14.1,2,14,2z M14,3.1l9.1,3.7
				l-3.8,1.6l-9.1-3.7L14,3.1z M8.8,5.2l9.1,3.7L14,10.5L4.9,6.8L8.8,5.2z M4,7.6l9.4,3.8v13.2L4,20.8V7.6z M24,7.6v13.3l-9.4,3.8
				V11.4l4.2-1.7v3.5c0,0.2,0.1,0.4,0.3,0.5c0.2,0.1,0.4,0.1,0.5,0s0.3-0.3,0.3-0.5V9.3L24,7.6z"/>
		</g>
	</g>
</g>
</svg>
