<?xml version="1.0" encoding="utf-8"?>
<!-- Generator: Adobe Illustrator 23.0.1, SVG Export Plug-In . SVG Version: 6.00 Build 0)  -->
<svg width="27px" height="27px" version="1.1" id="Layer_1" xmlns="http://www.w3.org/2000/svg" xmlns:xlink="http://www.w3.org/1999/xlink" x="0px" y="0px"
	 viewBox="0 0 28 28" style="enable-background:new 0 0 28 28;" xml:space="preserve">
<style type="text/css">
	.st0{fill:#6C7688;}
</style>
<title>Visual UI</title>
<desc>Created with Sketch.</desc>
<g id="Icons">
	<g id="Symbols" transform="translate(-132.000000, -37.000000)">
		<g id="Group" transform="translate(132.000000, 37.000000)">
			<path id="Browser" class="st0" d="M24.5,5H3.5C3.2,5,3,5.2,3,5.5v16.9C3,22.8,3.2,23,3.5,23h20.9c0.3,0,0.5-0.2,0.5-0.5V5.5
				C25,5.2,24.8,5,24.5,5z M23.9,6.1v2.5H4.1V6.1H23.9z M4.1,21.9V9.7h19.9v12.2H4.1z M14,11.7c-4.1,0-7.2,3.3-7.4,3.4
				c-0.2,0.2-0.2,0.5,0,0.8c0.1,0.1,3.2,3.4,7.4,3.4s7.2-3.3,7.4-3.4c0.2-0.2,0.2-0.5,0-0.8C21.2,15,18.1,11.7,14,11.7z M14,17.7
				c-1.2,0-2.1-1-2.1-2.2s0.9-2.2,2.1-2.2c1.2,0,2.1,1,2.1,2.2S15.2,17.7,14,17.7z M11.8,13.1c-0.6,0.6-1,1.4-1,2.4
				c0,0.9,0.4,1.8,1,2.4c-1.9-0.6-3.4-1.8-4-2.4C8.5,14.9,9.9,13.7,11.8,13.1z M16.2,17.9c0.6-0.6,1-1.4,1-2.4c0-0.9-0.4-1.8-1-2.4
				c1.9,0.6,3.4,1.8,4,2.4C19.5,16.1,18.1,17.3,16.2,17.9z M14,14.3c0.6,0,1.1,0.5,1.1,1.2c0,0.6-0.5,1.2-1.1,1.2
				c-0.6,0-1.1-0.5-1.1-1.2C12.9,14.9,13.4,14.3,14,14.3z M5.9,7.9c-0.1,0-0.3-0.1-0.4-0.2C5.4,7.6,5.3,7.5,5.3,7.3
				c0-0.1,0.1-0.3,0.2-0.4c0.1-0.1,0.2-0.2,0.4-0.2c0.1,0,0.3,0.1,0.4,0.2C6.3,7,6.4,7.2,6.4,7.3c0,0.1-0.1,0.3-0.2,0.4
				C6.1,7.8,6,7.9,5.9,7.9z M8.2,7.9C8,7.9,7.9,7.8,7.8,7.7C7.7,7.6,7.7,7.5,7.7,7.3c0-0.1,0.1-0.3,0.2-0.4C7.9,6.8,8,6.8,8.2,6.8
				c0.1,0,0.3,0.1,0.4,0.2C8.7,7,8.7,7.2,8.7,7.3c0,0.1-0.1,0.3-0.2,0.4C8.5,7.8,8.3,7.9,8.2,7.9z M10.5,7.9c-0.1,0-0.3-0.1-0.4-0.2
				C10,7.6,10,7.5,10,7.3C10,7.2,10,7,10.1,6.9c0.1-0.1,0.2-0.2,0.4-0.2c0.1,0,0.3,0.1,0.4,0.2C11,7,11,7.2,11,7.3
				c0,0.1-0.1,0.3-0.2,0.4C10.8,7.8,10.6,7.9,10.5,7.9z"/>
		</g>
	</g>
</g>
</svg>
